Coordinates
version=1
nRows=6
nColumns=63
inDegrees=yes

Units are S.I. units (second, meters, Newtons, ...)
If the header above contains a line with 'inDegrees', this indicates whether rotational values are in degrees (yes) or radians (no).

endheader
time	pelvis_tilt	pelvis_list	pelvis_rotation	pelvis_tx	pelvis_ty	pelvis_tz	hip_flexion_r	hip_adduction_r	hip_rotation_r	knee_angle_r	knee_angle_r_beta	ankle_angle_r	subtalar_angle_r	mtp_angle_r	hip_flexion_l	hip_adduction_l	hip_rotation_l	knee_angle_l	knee_angle_l_beta	ankle_angle_l	subtalar_angle_l	mtp_angle_l	L5_S1_Flex_Ext	L5_S1_Lat_Bending	L5_S1_axial_rotation	L4_L5_Flex_Ext	L4_L5_Lat_Bending	L4_L5_axial_rotation	L3_L4_Flex_Ext	L3_L4_Lat_Bending	L3_L4_axial_rotation	L2_L3_Flex_Ext	L2_L3_Lat_Bending	L2_L3_axial_rotation	L1_L2_Flex_Ext	L1_L2_Lat_Bending	L1_L2_axial_rotation	L1_T12_Flex_Ext	L1_T12_Lat_Bending	L1_T12_axial_rotation	Abs_r3	Abs_r2	Abs_r1	Abs_t1	Abs_t2	neck_flexion	neck_bending	neck_rotation	arm_flex_r	arm_add_r	arm_rot_r	elbow_flex_r	pro_sup_r	wrist_flex_r	wrist_dev_r	arm_flex_l	arm_add_l	arm_rot_l	elbow_flex_l	pro_sup_l	wrist_flex_l	wrist_dev_l
      2.60000000	      2.95769626	     -2.58736619	      1.56829455	     -0.60355666	      0.95984014	      0.35218701	      7.84739541	      6.47735363	    -10.17835641	     17.97158468	      0.31366332	     11.64631799	     -2.15098752	      0.00000000	     13.76103754	     -7.24691290	     -4.73267975	     71.75523199	      1.25236505	     -2.40641293	    -17.30008540	      0.00000000	      0.00479185	      0.31493770	     -0.58055856	      0.00889894	      0.41886714	     -0.61684347	      0.00787253	      0.76573953	     -0.61684347	      0.00547660	      0.76573953	     -0.50798874	      0.00444971	      0.64222096	     -0.47170383	      0.00273806	      0.48783850	     -0.43541892	      0.03422768	      3.56263827	     -3.22889256	      0.00000000	      0.00000000	      0.00000000	      0.00000000	     -0.00000000	      6.64285699	    -14.86044303	     39.52138099	     15.57828188	     57.17819740	      0.00000000	      5.00000014	     -0.00901190	     -8.77917964	    128.89686624	      1.92587721	     26.91069124	      0.00000000	      5.00000014
      2.63333333	      2.57044000	     -2.14369604	     -0.31596506	     -0.56709842	      0.96644153	      0.35490682	      4.17506479	      6.38675858	     -8.43791091	     14.74225968	      0.25730097	     10.99563103	     -0.69431119	      0.00000000	     19.95627309	     -5.88631328	     -4.60374373	     71.40400365	      1.24623496	      0.68663043	    -16.88578696	      0.00000000	      0.00089975	      0.26447358	     -0.24052695	      0.00167093	      0.35174986	     -0.25555988	      0.00147821	      0.64304106	     -0.25555988	      0.00102833	      0.64304106	     -0.21046108	      0.00083551	      0.53931452	     -0.19542814	      0.00051412	      0.40966957	     -0.18039521	      0.00642686	      2.99177800	     -1.33773872	      0.00000000	      0.00000000	      0.00000000	      0.00000000	     -0.00000000	     10.65944723	    -15.04434470	     39.35365703	     16.43959756	     57.02955570	      0.00000000	      5.00000014	     -2.07505447	     -8.71452555	    129.18730295	      2.16326510	     26.88721152	      0.00000000	      5.00000014
      2.66666667	      2.23813916	     -1.77136610	     -2.63440385	     -0.53139262	      0.97137094	      0.35781841	      0.72719787	      6.12973742	     -7.08618816	     11.92465840	      0.20812455	     10.45858671	      0.47928289	      0.00000000	     25.19424473	     -5.04320587	     -4.76735010	     68.22137015	      1.19068753	      3.75369584	    -16.42114564	      0.00000000	     -0.00305307	      0.22204865	      0.25984171	     -0.00566986	      0.29532471	      0.27608182	     -0.00501589	      0.53988909	      0.27608182	     -0.00348936	      0.53988909	      0.22736149	     -0.00283508	      0.45280161	      0.21112139	     -0.00174453	      0.34395336	      0.19488128	     -0.02180779	      2.51185875	      1.44516163	      0.00000000	      0.00000000	      0.00000000	      0.00000000	     -0.00000000	     13.96632773	    -15.48076286	     39.19976282	     17.98616133	     56.80769241	      0.00000000	      5.00000014	     -3.56623171	     -8.66687343	    129.69582150	      2.41593632	     26.74288187	      0.00000000	      5.00000014
      2.70000000	      1.94029193	     -1.39498601	     -5.62132737	     -0.49593164	      0.97378723	      0.36170173	     -2.31685570	      5.65415788	     -5.22293952	      9.97622694	      0.17411801	     10.48425108	      0.49689282	      0.00000000	     29.08077772	     -5.26905121	     -5.86096568	     62.44283899	      1.08983313	      5.94191501	    -16.29332137	      0.00000000	     -0.00616654	      0.18034790	      0.96549742	     -0.01145188	      0.23986271	      1.02584101	     -0.01013101	      0.43849789	      1.02584101	     -0.00704774	      0.43849789	      0.84481024	     -0.00572625	      0.36776545	      0.78446666	     -0.00352356	      0.27935890	      0.72412307	     -0.04404699	      2.04013156	      5.36980702	      0.00000000	      0.00000000	      0.00000000	      0.00000000	     -0.00000000	     15.89712435	    -15.69939082	     34.72211663	     20.40181162	     50.77857174	      0.00000000	      5.00000014	     -4.44460879	     -8.37474018	    141.66506073	      1.62481616	     22.11403071	      0.00000000	      5.00000014
      2.73333333	      1.70988192	     -1.11188401	     -8.43930026	     -0.46008867	      0.97341335	      0.36504905	     -5.14190004	      4.91147889	     -4.56204388	      8.70852246	      0.15199239	     11.56751697	      1.24145099	      0.00000000	     31.33057235	     -6.05387818	     -7.24140304	     53.96471004	      0.94186187	      6.77864316	    -16.86743400	      0.00000000	     -0.01017248	      0.14701895	      1.65719598	     -0.01889132	      0.19553520	      1.76077073	     -0.01671237	      0.35746187	      1.76077073	     -0.01162613	      0.35746187	      1.45004648	     -0.00944617	      0.29980104	      1.34647173	     -0.00581256	      0.22773235	      1.24289698	     -0.07266102	      1.66310774	      9.21682687	      0.00000000	      0.00000000	      0.00000000	      0.00000000	     -0.00000000	     17.75752532	    -16.50314549	     33.85898828	     23.13791738	     50.21287534	      0.00000000	      5.00000014	     -5.26052151	     -8.44567092	    141.55350255	      1.51594711	     22.18409237	      0.00000000	      5.00000014
      2.76666667	      1.43389521	     -1.00639630	    -11.04092161	     -0.42305487	      0.97004733	      0.36840847	     -7.58251220	      4.05876995	     -5.14127250	      8.30535090	      0.14495572	     13.45055591	      2.86509224	      0.00000000	     31.88630611	     -7.20214352	     -9.05230813	     43.08827752	      0.75203231	      6.44744703	    -16.74485444	      0.00000000	     -0.01142710	      0.13106547	      2.30128258	     -0.02122126	      0.17431707	      2.44511275	     -0.01877358	      0.31867258	      2.44511275	     -0.01306003	      0.31867258	      2.01362226	     -0.01061120	      0.26726870	      1.86979210	     -0.00652944	      0.20302041	      1.72596194	     -0.08162260	      1.48263880	     12.79904335	      0.00000000	      0.00000000	      0.00000000	      0.00000000	     -0.00000000	     17.85629594	    -16.20644662	     24.73618681	     26.99343487	     46.38730119	      0.00000000	      5.00000014	     -5.95789313	     -8.62890590	    139.81407341	      1.46359461	     22.55229616	      0.00000000	      5.00000014
